<?xml version="1.0" encoding="UTF-8"?>
<svg id="Layer_1" xmlns="http://www.w3.org/2000/svg" version="1.1" viewBox="0 0 167.4 112.9">
  <!-- Generator: Adobe Illustrator 29.1.0, SVG Export Plug-In . SVG Version: 2.1.0 Build 142)  -->
  <defs>
    <style>
      .st0 {
        fill: #3c3f7a;
      }

      .st1 {
        fill: #fff;
      }
    </style>
  </defs>
  <path class="st0" d="M102.22,110.9c-7.5,0-14.48-2.14-20.17-6.18-1.55-1.1-3.96-3.85-7.19-7.6-.87-1-1.87-2.17-2.57-2.95-1.05,1.08-2.75,3.25-3.96,4.81-2.06,2.66-4.01,5.16-5.48,6.27-3.78,2.84-8.94,4.47-14.18,4.47-7.2,0-13.26-2.92-16.64-8.01-4.52-6.8-2.5-11.91-.37-17.32.26-.66.53-1.33.78-2.02-9.5-1.09-19.08-2.64-25.37-11.63C.91,61.92.36,51.61,5.52,41.71c6.48-12.44,20.99-21.47,34.5-21.47,3.82,0,7.47.69,10.86,2.05,1.17.47,2.26,1.03,3.26,1.66-2.51-3.04-3.11-6.35,1.92-12.59,4.66-5.78,12.41-9.37,20.22-9.37,5.6,0,10.67,1.76,14.66,5.1,2.45,2.05,3.74,4.65,4.88,6.94.63,1.27,1.24,2.49,2,3.57,9.68-8.42,20.61-13.04,30.95-13.04,9.07,0,17.39,3.4,24.73,10.1,10.96,9.99,14.63,23.37,9.82,35.77-4.81,12.4-17.18,20.73-30.8,20.74h0c-1,0-1.99-.04-2.99-.13,4.4,2.03,7.62,5.76,6.51,14.28-1.46,11.23-16.5,23.37-27.33,25.06-2.17.34-4.36.51-6.49.51ZM106.82,60.05c1.46,2.52,3.67,4.55,6.54,5.99.14.07.28.14.42.21-3.1-1.74-5.43-3.81-6.97-6.19ZM62.26,39.78c-.04,1.22-.18,2.47-.42,3.75-1.05,5.44-4.04,11.06-8.48,15.09,1.98-1.68,3.75-3.71,5.2-6.03,2.52-4.04,3.77-8.49,3.71-12.81ZM23.34,47.02c-.36.67-.66,1.36-.88,2.06-.65,2.06-.57,4.03.2,5.86-.51-1.6-.61-3.33-.25-5.12.19-.96.51-1.9.93-2.79ZM138.44,47.06c-.41,2.26-1.6,4.18-2.67,5.65.82-.69,1.54-1.5,1.76-2.06.51-1.28.79-2.48.91-3.59ZM38.92,38.93c1.78.66,3.1,2.17,4.29,3.52.34.39.81.92,1.23,1.33-1.28-2.58-3.15-4.22-5.52-4.85ZM135.22,37.97c.53.58,1.02,1.21,1.47,1.88-.05-.08-.11-.16-.16-.24-.39-.58-.83-1.12-1.32-1.64ZM118.08,33.28c-2.65.71-5.04,2.06-7.03,3.99,2.01-1.85,4.42-3.22,7.03-3.99Z"/>
  <path class="st1" d="M76.29,4c4.82,0,9.59,1.46,13.37,4.63,4,3.35,4.47,8.42,7.97,11.83,9.17-8.48,20.16-13.9,31.14-13.9,8.03,0,16.05,2.89,23.38,9.57,23.52,21.45,6.75,53.03-19.63,53.03-4.98,0-10.29-1.12-15.75-3.65-9.5-4.4-12.61-11.21-8.37-21.12,2.68-6.27,8.71-9.85,14.69-9.85,4.54,0,9.06,2.07,12.06,6.59,5,7.53-4.88,12.79-3,14.5.31.28.71.41,1.15.41,2.14,0,5.39-2.91,6.09-4.66,4.61-11.56-5.92-20.68-16.92-20.68-5.12,0-10.33,1.97-14.17,6.59-8.02,9.65-7.91,24.47,4.17,30.53,10.17,5.1,23.62,1.55,21.59,17.24-1.35,10.37-15.67,21.78-25.65,23.35-2.06.32-4.13.49-6.18.49-6.77,0-13.38-1.81-19.02-5.81-2.62-1.86-9.9-11.23-10.66-11.4-.03,0-.06,0-.09,0-1.79,0-8,9.85-10.82,11.97-3.51,2.64-8.27,4.07-12.98,4.07-5.9,0-11.73-2.23-14.97-7.11-5.01-7.55-.87-12.54,1.45-19.94-10.09-1.13-20.13-2.04-26.44-11.07-14.92-21.36,8.68-47.34,31.31-47.34,3.44,0,6.86.6,10.12,1.91,19.68,7.91,7.81,38.26-11.18,38.26-2.41,0-4.92-.49-7.51-1.57-14.11-5.9-4.93-20.33,4.63-20.33.51,0,1.01.04,1.52.12,3.12.52,5.12,5.7,7.56,5.7.63,0,1.29-.34,2-1.2-2.03-6.1-6.14-8.49-10.56-8.49-11.2,0-24.4,15.37-10.78,24.85,4.54,3.16,9.18,4.52,13.6,4.52,16.83,0,30.41-19.78,22.61-35.73-3.84-7.85-12.53-7.55-4.4-17.65,4.43-5.5,11.61-8.63,18.67-8.63M76.29,0c-8.53,0-16.67,3.78-21.78,10.12-3.3,4.09-4.42,7.23-4.25,9.81-3.24-1.12-6.67-1.68-10.24-1.68-14.44,0-29.36,9.27-36.28,22.54-5.52,10.59-4.92,21.63,1.69,31.09,6.17,8.83,15.39,11.02,24.21,12.17-2.08,5.29-4.25,11.28.72,18.77,3.75,5.66,10.42,8.9,18.3,8.9,5.66,0,11.27-1.77,15.38-4.87,1.57-1.18,3.26-3.3,5.86-6.64.7-.9,1.58-2.04,2.38-3.01.36.42.72.84,1.05,1.22,3.33,3.87,5.82,6.7,7.56,7.93,6.04,4.28,13.41,6.55,21.33,6.55,2.23,0,4.52-.18,6.8-.54,11.73-1.83,27.41-14.55,29-26.78.77-5.94-.4-9.86-2.55-12.53,13.25-1.11,24.96-9.62,29.72-21.89,5.12-13.21,1.26-27.4-10.33-37.98-7.72-7.05-16.5-10.62-26.08-10.62-10.18,0-20.85,4.23-30.44,12-.24-.45-.47-.93-.72-1.42-1.23-2.47-2.62-5.26-5.38-7.58-4.35-3.64-9.86-5.57-15.94-5.57h0Z"/>
</svg>