<?xml version="1.0" encoding="UTF-8"?>
<svg id="Figure" xmlns="http://www.w3.org/2000/svg" version="1.1" viewBox="0 0 134 143.09">
  <!-- Generator: Adobe Illustrator 29.1.0, SVG Export Plug-In . SVG Version: 2.1.0 Build 142)  -->
  <defs>
    <style>
      .st0 {
        fill: #4c51ab;
      }

      .st1, .st2 {
        fill: #fff;
      }

      .st2 {
        stroke: #4c51ab;
        stroke-miterlimit: 10;
        stroke-width: 4px;
      }
    </style>
  </defs>
  <circle class="st2" cx="67" cy="76.09" r="65"/>
  <g>
    <path class="st0" d="M119.72,117.66c-11.86,15.43-32.46,22.89-52.72,22.05-5.06-.21-14.44-.33-31.5-12.34-19.22-13.53-23.71-29.96-24.62-33.5-.27-1.04-1.46-5.97-.77-9.78.4-2.21,1.32-5.54,2.02-6.84,2.83-5.25,9.35-8.43,10.08-8.67,9.48-3.1,16.08-1.62,16.08-1.62,21.05,2.99,36,12.6,52.29,16.38,14.2,4.46,27.68,2.21,33.77-6.84,8.31-12.34-.25-32.65-19.12-45.36-1.86-1.25-3.76-2.39-5.66-3.39-2.23-1.32-4.37-2.36-6.25-2.99-.8-.27-1.59-.51-2.37-.74-.04-.03-.08-.04-.13-.04-10.97-3.14-19.58-2.19-23.71-1.32-.03,0-.05,0-.08.02-1.07.22-1.83.44-2.24.58,0,0,12.71-8.75,13.1-10.5,1.36-6.13-11.77-12.32-11.77-12.32,3.87-.5,7.32-.52,10.34-.27,1.87.15,4.57.48,7.72,1.31,17.31,4.6,31.28,24.11,31.28,24.11,1.96,3.09,13.52,19.89,16.8,34.75.3,1.35,1.64,11.07,1.68,13.03.09,5.2.52,25.12-14.23,44.3Z"/>
    <ellipse class="st1" cx="31.67" cy="88.06" rx="5.67" ry="5.81"/>
    <path class="st1" d="M59.86,91.69c1.24,1.87,2.99,4.06,5.42,6.11,6.3,5.33,13.25,6.46,16.53,6.75,1.62.23,4.44.41,7.74-.55,2.98-.86,5.12-2.3,6.38-3.28-6.87,1.04-11.79-2.34-12.12-5.56-.31-3.02,3.44-5.72,3.88-6.02-9.27.85-18.55,1.7-27.82,2.54Z"/>
  </g>
  <g>
    <circle class="st0" cx="99" cy="56.42" r="5.67"/>
    <path class="st1" d="M73.86,135.79c-3.21,1.17-6.15,1.85-8.78,2.22-1.62.23-3.99.46-6.84.35-15.66-.64-30.64-14.93-30.64-14.93-1.83-1.69-12.87-12.66-17.24-25.79-.15-.45-2.25-6.98-1.56-13.84.36-3.6,1.88-7.7,4.25-10.66,6.22-7.78,21.76-10.4,25.25-6.68h-.1c-9.13-.61-16.96,1.69-22.04,6.52-.23.21-.45.43-.67.65-.06.07-.13.14-.19.21-.97,1.04-1.82,2.18-2.54,3.42-2.25,3.87-3.26,11.02-1.02,17.94.44,1.35,1.55,4.16,3.88,7.26,1.87,2.5,4.71,5.22,7.14,7.2,5.28,4.29,11.97,6.13,15.98,6.54,13.93,1.45,30.48-2.69,32.15-3.7,0,0-9.95,12.34-9.95,13.93,0,3.12,4.09,5.7,7.67,7.36,2.79,1.28,5.26,2.01,5.26,2.01Z"/>
    <path class="st0" d="M71.57,61.36c-1.24-1.83-2.99-3.96-5.42-5.96-6.3-5.2-13.25-6.3-16.53-6.59-1.62-.22-4.44-.4-7.74.53-2.98.84-5.12,2.24-6.38,3.2,6.87-1.01,11.79,2.28,12.12,5.42.31,2.95-3.44,5.58-3.88,5.88,9.27-.83,18.55-1.65,27.82-2.48Z"/>
    <g>
      <path class="st0" d="M68.47,116.37c-2.97,1.51-6.72,3.09-11.19,4.3-6.14,1.66-11.57,2.05-15.66,2.02,4.15.36,9.64.41,15.94-.75,4.39-.81,8.14-2.01,11.18-3.21-.09-.78-.18-1.57-.27-2.35Z"/>
      <path class="st0" d="M64.26,123.88c-3.24.75-7.26,1.39-11.89,1.49-6.36.14-11.72-.79-15.69-1.8,3.94,1.35,9.26,2.71,15.65,3.1,4.45.27,8.39,0,11.63-.44.1-.78.2-1.57.3-2.35Z"/>
      <path class="st0" d="M69.59,130.58c-3.3.42-7.37.64-11.98.27-6.34-.51-11.58-1.98-15.42-3.39,3.78,1.74,8.94,3.64,15.26,4.67,4.4.72,8.34.86,11.61.75.18-.77.36-1.54.54-2.31Z"/>
    </g>
  </g>
  <g>
    <g>
      <path class="st1" d="M61.83,84.48c0,3.19-2.58,5.77-5.77,5.77-.3,0-.59-.02-.87-.07,2.19-.42,3.87-2.82,3.87-5.71s-1.68-5.28-3.87-5.71c.28-.04.58-.07.87-.07,3.19,0,5.77,2.58,5.77,5.77Z"/>
      <path class="st1" d="M55.69,102.19c-1.65,2.73-5.2,3.6-7.93,1.95-.25-.15-.49-.32-.71-.51,2.1.77,4.77-.4,6.27-2.88s1.3-5.39-.36-6.89c.27.11.53.24.78.4,2.73,1.65,3.6,5.2,1.95,7.93Z"/>
      <path class="st1" d="M45.36,115.95c-2.02,2.46-5.66,2.82-8.13.8-.23-.19-.44-.39-.63-.61,1.96,1.07,4.78.28,6.62-1.95s2.05-5.15.63-6.87c.25.15.49.32.72.5,2.46,2.02,2.82,5.66.8,8.13Z"/>
      <path class="st1" d="M65.08,114.1c-1.54,2.79-5.05,3.81-7.84,2.27-.26-.14-.51-.3-.73-.48,2.12.69,4.75-.6,6.15-3.12s1.08-5.44-.63-6.87c.27.1.54.22.8.36,2.79,1.54,3.81,5.05,2.27,7.84Z"/>
      <path class="st1" d="M73.17,99.13c-.31,3.17-3.14,5.49-6.31,5.18-.3-.03-.58-.08-.86-.15,2.22-.21,4.13-2.42,4.42-5.3s-1.15-5.42-3.3-6.06c.29-.02.58,0,.88.02,3.17.31,5.49,3.14,5.18,6.31Z"/>
      <path class="st1" d="M75.45,82.93c.23,2.6-2.15,4.93-5.33,5.22-.3.03-.59.03-.88.02,2.15-.54,3.65-2.64,3.44-5s-2.06-4.16-4.27-4.31c.28-.06.57-.11.87-.13,3.18-.28,5.94,1.59,6.17,4.19Z"/>
    </g>
    <g>
      <path class="st1" d="M83.22,106.76c-.48,3.15-3.43,5.32-6.58,4.83-.29-.04-.58-.11-.85-.2,2.23-.09,4.26-2.2,4.69-5.06s-.86-5.48-2.97-6.23c.29,0,.58.02.87.07,3.15.48,5.32,3.43,4.83,6.58Z"/>
      <path class="st1" d="M77.72,121.87c-.45,3.16-3.38,5.35-6.54,4.89-.29-.04-.58-.11-.86-.19,2.23-.11,4.24-2.24,4.65-5.1s-.91-5.47-3.02-6.2c.29,0,.58.02.88.06,3.16.45,5.35,3.38,4.89,6.54Z"/>
      <path class="st1" d="M93.15,128.42c-.5,3.15-3.59,5.28-6.91,4.75-.31-.05-.61-.12-.9-.21,2.35-.06,4.47-2.15,4.92-5s-.92-5.5-3.14-6.27c.3,0,.61.03.92.08,3.32.52,5.61,3.5,5.11,6.65Z"/>
      <path class="st1" d="M93.24,112.24c-.47,3.15-3.4,5.33-6.56,4.86-.29-.04-.58-.11-.86-.19,2.23-.1,4.25-2.22,4.67-5.08s-.89-5.47-3-6.21c.29,0,.58.02.87.06,3.15.47,5.33,3.4,4.86,6.56Z"/>
      <path class="st1" d="M94.72,92.75c.24,2.64-1.6,4.96-4.09,5.19-.23.02-.46.02-.69,0,1.69-.5,2.82-2.61,2.61-5-.21-2.39-1.71-4.26-3.45-4.46.22-.06.45-.1.68-.12,2.5-.22,4.71,1.74,4.95,4.38Z"/>
    </g>
    <g>
      <path class="st1" d="M104.72,91.35c.33,2.13-1.21,4.13-3.44,4.47-.21.03-.42.05-.62.05,1.49-.51,2.42-2.29,2.12-4.22s-1.73-3.35-3.31-3.4c.19-.06.4-.11.61-.14,2.23-.34,4.31,1.12,4.64,3.25Z"/>
      <path class="st1" d="M104.14,107.67c.13,2.15-1.6,4.01-3.85,4.15-.21.01-.42.01-.62,0,1.53-.38,2.63-2.07,2.51-4.03s-1.4-3.49-2.97-3.68c.2-.04.41-.07.62-.08,2.25-.14,4.18,1.49,4.31,3.64Z"/>
      <path class="st1" d="M102.12,122.29c-.06,2.16-1.93,3.88-4.19,3.85-.21,0-.42-.02-.62-.05,1.56-.26,2.79-1.87,2.84-3.82s-1.1-3.59-2.64-3.9c.2-.03.41-.04.62-.04,2.26.03,4.04,1.81,3.98,3.96Z"/>
      <path class="st1" d="M112.81,114.65c.28,2.28-1.78,4.4-4.6,4.75-.26.03-.52.05-.78.05,1.9-.54,3.18-2.43,2.92-4.49s-1.95-3.59-3.93-3.66c.25-.06.5-.11.77-.14,2.82-.34,5.34,1.22,5.62,3.5Z"/>
      <path class="st1" d="M123.05,102.42c1.05,1.42.16,3.76-1.99,5.22-.2.14-.4.26-.61.37,1.34-1.19,1.68-3.03.73-4.32s-2.88-1.59-4.49-.77c.18-.15.37-.29.57-.43,2.15-1.46,4.74-1.49,5.79-.07Z"/>
      <path class="st1" d="M112.21,100.96c.3,2.14-1.27,4.12-3.5,4.42-.21.03-.42.04-.62.04,1.5-.49,2.45-2.26,2.18-4.2s-1.68-3.38-3.26-3.45c.2-.06.4-.1.61-.13,2.24-.31,4.29,1.17,4.6,3.31Z"/>
      <path class="st1" d="M124.79,91.58c.98,1.94.12,4.28-1.92,5.23-.19.09-.38.16-.58.22,1.27-.91,1.61-2.87.73-4.62s-2.69-2.71-4.22-2.31c.17-.11.35-.21.54-.3,2.04-.95,4.48-.15,5.45,1.79Z"/>
      <path class="st1" d="M128.78,82.17c1.32,1.08,1.25,3.24-.16,4.82-.13.15-.27.28-.41.41.79-1.23.54-2.88-.65-3.85s-2.93-.96-4.07-.01c.11-.16.23-.31.36-.46,1.41-1.58,3.61-1.99,4.93-.91Z"/>
      <path class="st1" d="M115.61,92.01c.77,2.02-.32,4.27-2.44,5.03-.2.07-.4.13-.6.17,1.36-.79,1.89-2.71,1.19-4.54s-2.4-2.95-3.96-2.69c.18-.1.37-.18.57-.25,2.12-.76,4.47.26,5.24,2.28Z"/>
    </g>
  </g>
</svg>